999
dxflib 2.2.0.0
  0
SECTION
  2
HEADER
  9
$ACADVER
  1
AC1015
  9
$HANDSEED
  5
FFFF
  9
$DIMASZ
 40
0.1
  9
$PLIMMIN
 10
0.0
 20
0.0
  9
$DIMEXE
 40
0.05
  9
$DIMGAP
 40
0.025
  9
$PLIMMAX
 10
8.2677165354330722
 20
11.6929133858267722
  9
$INSUNITS
 70
1
  9
$DIMSTYLE
  2
Standard
  9
$DIMEXO
 40
0.025
  9
$DIMTXT
 40
0.1
  0
ENDSEC
  0
SECTION
  2
TABLES
  0
TABLE
  2
VPORT
  5
8
100
AcDbSymbolTable
 70
1
  0
VPORT
  5
30
100
AcDbSymbolTableRecord
100
AcDbViewportTableRecord
  2
*Active
 70
0
 10
0.0
 20
0.0
 11
1.0
 21
1.0
 12
286.3055555555554861
 22
148.5
 13
0.0
 23
0.0
 14
10.0
 24
10.0
 15
10.0
 25
10.0
 16
0.0
 26
0.0
 36
1.0
 17
0.0
 27
0.0
 37
0.0
 40
297.0
 41
1.92798353909465
 42
50.0
 43
0.0
 44
0.0
 50
0.0
 51
0.0
 71
0
 72
100
 73
1
 74
3
 75
1
 76
1
 77
0
 78
0
281
0
 65
1
110
0.0
120
0.0
130
0.0
111
1.0
121
0.0
131
0.0
112
0.0
122
1.0
132
0.0
 79
0
146
0.0
  0
ENDTAB
  0
TABLE
  2
LTYPE
  5
5
100
AcDbSymbolTable
 70
21
  0
LTYPE
  5
14
100
AcDbSymbolTableRecord
100
AcDbLinetypeTableRecord
  2
ByBlock
 70
0
  3

 72
65
 73
0
 40
0.0
  0
LTYPE
  5
15
100
AcDbSymbolTableRecord
100
AcDbLinetypeTableRecord
  2
ByLayer
 70
0
  3

 72
65
 73
0
 40
0.0
  0
LTYPE
  5
16
100
AcDbSymbolTableRecord
100
AcDbLinetypeTableRecord
  2
CONTINUOUS
 70
0
  3
Solid line
 72
65
 73
0
 40
0.0
  0
LTYPE
  5
31
100
AcDbSymbolTableRecord
100
AcDbLinetypeTableRecord
  2
DOT
 70
0
  3
Dot . . . . . . . . . . . . . . . . . . . . . .
 72
65
 73
2
 40
6.3499999999999996
 49
0.0
 74
0
 49
-6.3499999999999996
 74
0
  0
LTYPE
  5
32
100
AcDbSymbolTableRecord
100
AcDbLinetypeTableRecord
  2
DOT2
 70
0
  3
Dot (.5x) .....................................
 72
65
 73
2
 40
3.1749999999999998
 49
0.0
 74
0
 49
-3.1749999999999998
 74
0
  0
LTYPE
  5
33
100
AcDbSymbolTableRecord
100
AcDbLinetypeTableRecord
  2
DOTX2
 70
0
  3
Dot (2x) .  .  .  .  .  .  .  .  .  .  .  .  .
 72
65
 73
2
 40
12.6999999999999993
 49
0.0
 74
0
 49
-12.6999999999999993
 74
0
  0
LTYPE
  5
34
100
AcDbSymbolTableRecord
100
AcDbLinetypeTableRecord
  2
DASHED
 70
0
  3
Dashed __ __ __ __ __ __ __ __ __ __ __ __ __ _
 72
65
 73
2
 40
19.0500000000000007
 49
12.6999999999999993
 74
0
 49
-6.3499999999999996
 74
0
  0
LTYPE
  5
35
100
AcDbSymbolTableRecord
100
AcDbLinetypeTableRecord
  2
DASHED2
 70
0
  3
Dashed (.5x) _ _ _ _ _ _ _ _ _ _ _ _ _ _ _ _ _
 72
65
 73
2
 40
9.5250000000000004
 49
6.3499999999999996
 74
0
 49
-3.1749999999999998
 74
0
  0
LTYPE
  5
36
100
AcDbSymbolTableRecord
100
AcDbLinetypeTableRecord
  2
DASHEDX2
 70
0
  3
Dashed (2x) ____  ____  ____  ____  ____  ___
 72
65
 73
2
 40
38.1000000000000014
 49
25.3999999999999986
 74
0
 49
-12.6999999999999993
 74
0
  0
LTYPE
  5
37
100
AcDbSymbolTableRecord
100
AcDbLinetypeTableRecord
  2
DASHDOT
 70
0
  3
Dash dot __ . __ . __ . __ . __ . __ . __ . __
 72
65
 73
4
 40
25.3999999999999986
 49
12.6999999999999993
 74
0
 49
-6.3499999999999996
 74
0
 49
0.0
 74
0
 49
-6.3499999999999996
 74
0
  0
LTYPE
  5
38
100
AcDbSymbolTableRecord
100
AcDbLinetypeTableRecord
  2
DASHDOT2
 70
0
  3
Dash dot (.5x) _._._._._._._._._._._._._._._.
 72
65
 73
4
 40
12.6999999999999993
 49
6.3499999999999996
 74
0
 49
-3.1749999999999998
 74
0
 49
0.0
 74
0
 49
-3.1749999999999998
 74
0
  0
LTYPE
  5
39
100
AcDbSymbolTableRecord
100
AcDbLinetypeTableRecord
  2
DASHDOTX2
 70
0
  3
Dash dot (2x) ____  .  ____  .  ____  .  ___
 72
65
 73
4
 40
50.7999999999999972
 49
25.3999999999999986
 74
0
 49
-12.6999999999999993
 74
0
 49
0.0
 74
0
 49
-12.6999999999999993
 74
0
  0
LTYPE
  5
3A
100
AcDbSymbolTableRecord
100
AcDbLinetypeTableRecord
  2
DIVIDE
 70
0
  3
Divide ____ . . ____ . . ____ . . ____ . . ____
 72
65
 73
6
 40
31.75
 49
12.6999999999999993
 74
0
 49
-6.3499999999999996
 74
0
 49
0.0
 74
0
 49
-6.3499999999999996
 74
0
 49
0.0
 74
0
 49
-6.3499999999999996
 74
0
  0
LTYPE
  5
3B
100
AcDbSymbolTableRecord
100
AcDbLinetypeTableRecord
  2
DIVIDE2
 70
0
  3
Divide (.5x) __..__..__..__..__..__..__..__.._
 72
65
 73
6
 40
15.875
 49
6.3499999999999996
 74
0
 49
-3.1749999999999998
 74
0
 49
0.0
 74
0
 49
-3.1749999999999998
 74
0
 49
0.0
 74
0
 49
-3.1749999999999998
 74
0
  0
LTYPE
  5
3C
100
AcDbSymbolTableRecord
100
AcDbLinetypeTableRecord
  2
DIVIDEX2
 70
0
  3
Divide (2x) ________  .  .  ________  .  .  _
 72
65
 73
6
 40
63.5
 49
25.3999999999999986
 74
0
 49
-12.6999999999999993
 74
0
 49
0.0
 74
0
 49
-12.6999999999999993
 74
0
 49
0.0
 74
0
 49
-12.6999999999999993
 74
0
  0
LTYPE
  5
3D
100
AcDbSymbolTableRecord
100
AcDbLinetypeTableRecord
  2
CENTER
 70
0
  3
Center ____ _ ____ _ ____ _ ____ _ ____ _ ____
 72
65
 73
4
 40
50.7999999999999972
 49
31.75
 74
0
 49
-6.3499999999999996
 74
0
 49
6.3499999999999996
 74
0
 49
-6.3499999999999996
 74
0
  0
LTYPE
  5
3E
100
AcDbSymbolTableRecord
100
AcDbLinetypeTableRecord
  2
CENTER2
 70
0
  3
Center (.5x) ___ _ ___ _ ___ _ ___ _ ___ _ ___
 72
65
 73
4
 40
28.5749999999999993
 49
19.0500000000000007
 74
0
 49
-3.1749999999999998
 74
0
 49
3.1749999999999998
 74
0
 49
-3.1749999999999998
 74
0
  0
LTYPE
  5
3F
100
AcDbSymbolTableRecord
100
AcDbLinetypeTableRecord
  2
CENTERX2
 70
0
  3
Center (2x) ________  __  ________  __  _____
 72
65
 73
4
 40
101.5999999999999943
 49
63.5
 74
0
 49
-12.6999999999999993
 74
0
 49
12.6999999999999993
 74
0
 49
-12.6999999999999993
 74
0
  0
LTYPE
  5
40
100
AcDbSymbolTableRecord
100
AcDbLinetypeTableRecord
  2
BORDER
 70
0
  3
Border __ __ . __ __ . __ __ . __ __ . __ __ .
 72
65
 73
6
 40
44.4500000000000028
 49
12.6999999999999993
 74
0
 49
-6.3499999999999996
 74
0
 49
12.6999999999999993
 74
0
 49
-6.3499999999999996
 74
0
 49
0.0
 74
0
 49
-6.3499999999999996
 74
0
  0
LTYPE
  5
41
100
AcDbSymbolTableRecord
100
AcDbLinetypeTableRecord
  2
BORDER2
 70
0
  3
Border (.5x) __.__.__.__.__.__.__.__.__.__.__.
 72
65
 73
6
 40
22.2250000000000014
 49
6.3499999999999996
 74
0
 49
-3.1749999999999998
 74
0
 49
6.3499999999999996
 74
0
 49
-3.1749999999999998
 74
0
 49
0.0
 74
0
 49
-3.1749999999999998
 74
0
  0
LTYPE
  5
42
100
AcDbSymbolTableRecord
100
AcDbLinetypeTableRecord
  2
BORDERX2
 70
0
  3
Border (2x) ____  ____  .  ____  ____  .  ___
 72
65
 73
6
 40
88.9000000000000057
 49
25.3999999999999986
 74
0
 49
-12.6999999999999993
 74
0
 49
25.3999999999999986
 74
0
 49
-12.6999999999999993
 74
0
 49
0.0
 74
0
 49
-12.6999999999999993
 74
0
  0
ENDTAB
  0
TABLE
  2
LAYER
  5
2
100
AcDbSymbolTable
 70
2
  0
LAYER
  5
10
100
AcDbSymbolTableRecord
100
AcDbLayerTableRecord
  2
0
 70
0
 62
7
  6
CONTINUOUS
370
0
390
F
  0
LAYER
  5
43
100
AcDbSymbolTableRecord
100
AcDbLayerTableRecord
  2
Group#1
 70
0
 62
7
  6
ByLayer
390
F
  0
ENDTAB
  0
TABLE
  2
STYLE
  5
3
100
AcDbSymbolTable
 70
1
  0
STYLE
  5
11
100
AcDbSymbolTableRecord
100
AcDbTextStyleTableRecord
  2
Standard
 70
0
 40
0.0
 41
0.75
 50
0.0
 71
0
 42
2.5
  3
txt
  4

  0
ENDTAB
  0
TABLE
  2
VIEW
  5
6
100
AcDbSymbolTable
 70
0
  0
ENDTAB
  0
TABLE
  2
UCS
  5
7
100
AcDbSymbolTable
 70
0
  0
ENDTAB
  0
TABLE
  2
APPID
  5
9
100
AcDbSymbolTable
 70
1
  0
APPID
  5
12
100
AcDbSymbolTableRecord
100
AcDbRegAppTableRecord
  2
ACAD
 70
0
  0
ENDTAB
  0
TABLE
  2
DIMSTYLE
  5
A
100
AcDbSymbolTable
 70
1
100
AcDbDimStyleTable
 71
0
  0
DIMSTYLE
105
27
100
AcDbSymbolTableRecord
100
AcDbDimStyleTableRecord
  2
Standard
 41
0.1
 42
0.025
 43
3.75
 44
0.05
 70
0
 73
0
 74
0
 77
1
 78
8
140
0.1
141
2.5
143
0.03937007874016
147
0.025
171
3
172
1
271
2
272
2
274
3
278
44
283
0
284
8
340
11
  0
ENDTAB
  0
TABLE
  2
BLOCK_RECORD
  5
1
100
AcDbSymbolTable
 70
1
  0
BLOCK_RECORD
  5
1F
100
AcDbSymbolTableRecord
100
AcDbBlockTableRecord
  2
*Model_Space
340
22
  0
BLOCK_RECORD
  5
1B
100
AcDbSymbolTableRecord
100
AcDbBlockTableRecord
  2
*Paper_Space
340
1E
  0
BLOCK_RECORD
  5
23
100
AcDbSymbolTableRecord
100
AcDbBlockTableRecord
  2
*Paper_Space0
340
26
  0
BLOCK_RECORD
  5
44
100
AcDbSymbolTableRecord
100
AcDbBlockTableRecord
  2
hitech_holes-0
340
0
  0
ENDTAB
  0
ENDSEC
  0
SECTION
  2
BLOCKS
  0
BLOCK
  5
20
100
AcDbEntity
  8
0
100
AcDbBlockBegin
  2
*Model_Space
 70
0
 10
0.0
 20
0.0
 30
0.0
  3
*Model_Space
  1

  0
ENDBLK
  5
21
100
AcDbEntity
  8
0
100
AcDbBlockEnd
  0
BLOCK
  5
1C
100
AcDbEntity
 67
1
  8
0
100
AcDbBlockBegin
  2
*Paper_Space
 70
0
 10
0.0
 20
0.0
 30
0.0
  3
*Paper_Space
  1

  0
ENDBLK
  5
1D
100
AcDbEntity
 67
1
  8
0
100
AcDbBlockEnd
  0
BLOCK
  5
24
100
AcDbEntity
  8
0
100
AcDbBlockBegin
  2
*Paper_Space0
 70
0
 10
0.0
 20
0.0
 30
0.0
  3
*Paper_Space0
  1

  0
ENDBLK
  5
25
100
AcDbEntity
  8
0
100
AcDbBlockEnd
  0
BLOCK
  5
45
100
AcDbEntity
  8
0
100
AcDbBlockBegin
  2
hitech_holes-0
 70
0
 10
0.0
 20
0.0
 30
0.0
  3
hitech_holes-0
  1

  0
CIRCLE
  5
46
100
AcDbEntity
100
AcDbCircle
  8
0
 62
256
370
-1
  6
ByLayer
 10
0.0
 20
0.0
 30
0.0
 40
0.1575
  0
CIRCLE
  5
47
100
AcDbEntity
100
AcDbCircle
  8
0
 62
256
370
-1
  6
ByLayer
 10
0.3300000000000001
 20
0.0
 30
0.0
 40
0.046875
  0
CIRCLE
  5
48
100
AcDbEntity
100
AcDbCircle
  8
0
 62
256
370
-1
  6
ByLayer
 10
-0.3300000000000001
 20
0.0
 30
0.0
 40
0.046875
  0
CIRCLE
  5
49
100
AcDbEntity
100
AcDbCircle
  8
0
 62
256
370
-1
  6
ByLayer
 10
0.0
 20
0.3300000000000001
 30
0.0
 40
0.046875
  0
CIRCLE
  5
4A
100
AcDbEntity
100
AcDbCircle
  8
0
 62
256
370
-1
  6
ByLayer
 10
0.0
 20
-0.3300000000000001
 30
0.0
 40
0.046875
  0
ENDBLK
  5
4B
100
AcDbEntity
  8
0
100
AcDbBlockEnd
  0
ENDSEC
  0
SECTION
  2
ENTITIES
  0
LINE
  5
4C
100
AcDbEntity
100
AcDbLine
  8
Group#1
 62
256
370
-1
  6
ByLayer
 10
1.5528476549324599
 20
-0.80694743358583
 30
0.0
 11
1.5515753161282999
 21
-0.8043701494959949
 31
0.0
  0
LINE
  5
4D
100
AcDbEntity
100
AcDbLine
  8
Group#1
 62
256
370
-1
  6
ByLayer
 10
1.5515753161282999
 20
-0.8043701494959949
 30
0.0
 11
1.4941948376620899
 21
-0.703966476372176
 31
0.0
  0
LINE
  5
4E
100
AcDbEntity
100
AcDbLine
  8
Group#1
 62
256
370
-1
  6
ByLayer
 10
1.4941948376620899
 20
-0.703966476372176
 30
0.0
 11
1.43761688679263
 21
-0.628128469688393
 31
0.0
  0
LINE
  5
4F
100
AcDbEntity
100
AcDbLine
  8
Group#1
 62
256
370
-1
  6
ByLayer
 10
1.43761688679263
 20
-0.628128469688393
 30
0.0
 11
1.38678565578145
 21
-0.574912922584952
 31
0.0
  0
LINE
  5
50
100
AcDbEntity
100
AcDbLine
  8
Group#1
 62
256
370
-1
  6
ByLayer
 10
1.38678565578145
 20
-0.574912922584952
 30
0.0
 11
1.34615450103143
 21
-0.54156253576163
 31
0.0
  0
LINE
  5
51
100
AcDbEntity
100
AcDbLine
  8
Group#1
 62
256
370
-1
  6
ByLayer
 10
1.34615450103143
 20
-0.54156253576163
 30
0.0
 11
1.31956446121688
 21
-0.524599954033531
 31
0.0
  0
LINE
  5
52
100
AcDbEntity
100
AcDbLine
  8
Group#1
 62
256
370
-1
  6
ByLayer
 10
1.31956446121688
 20
-0.524599954033531
 30
0.0
 11
1.1618504605197999
 21
-0.46108947872395
 31
0.0
  0
LINE
  5
53
100
AcDbEntity
100
AcDbLine
  8
Group#1
 62
256
370
-1
  6
ByLayer
 10
1.1618504605197999
 20
-0.46108947872395
 30
0.0
 11
1.145549120579
 21
-0.448962698693819
 31
0.0
  0
LINE
  5
54
100
AcDbEntity
100
AcDbLine
  8
Group#1
 62
256
370
-1
  6
ByLayer
 10
1.145549120579
 20
-0.448962698693819
 30
0.0
 11
1.1374951360896099
 21
-0.43030992915122
 31
0.0
  0
LINE
  5
55
100
AcDbEntity
100
AcDbLine
  8
Group#1
 62
256
370
-1
  6
ByLayer
 10
1.1374951360896099
 20
-0.43030992915122
 30
0.0
 11
1.1398465656914101
 21
-0.410129164631696
 31
0.0
  0
LINE
  5
56
100
AcDbEntity
100
AcDbLine
  8
Group#1
 62
256
370
-1
  6
ByLayer
 10
1.1398465656914101
 20
-0.410129164631696
 30
0.0
 11
1.1922006646210599
 21
-0.214741007441767
 31
0.0
  0
LINE
  5
57
100
AcDbEntity
100
AcDbLine
  8
Group#1
 62
256
370
-1
  6
ByLayer
 10
1.1922006646210599
 20
-0.214741007441767
 30
0.0
 11
1.20025464911045
 21
-0.196088237899168
 31
0.0
  0
LINE
  5
58
100
AcDbEntity
100
AcDbLine
  8
Group#1
 62
256
370
-1
  6
ByLayer
 10
1.20025464911045
 20
-0.196088237899168
 30
0.0
 11
1.2165559890512501
 21
-0.183961457869036
 31
0.0
  0
LINE
  5
59
100
AcDbEntity
100
AcDbLine
  8
Group#1
 62
256
370
-1
  6
ByLayer
 10
1.2165559890512501
 20
-0.183961457869036
 30
0.0
 11
1.2367367535707701
 21
-0.181610028267236
 31
0.0
  0
LINE
  5
5A
100
AcDbEntity
100
AcDbLine
  8
Group#1
 62
256
370
-1
  6
ByLayer
 10
1.2367367535707701
 20
-0.181610028267236
 30
0.0
 11
1.40507632236171
 21
-0.205465343591253
 31
0.0
  0
LINE
  5
5B
100
AcDbEntity
100
AcDbLine
  8
Group#1
 62
256
370
-1
  6
ByLayer
 10
1.40507632236171
 20
-0.205465343591253
 30
0.0
 11
1.4365852631928
 21
-0.204070336808223
 31
0.0
  0
LINE
  5
5C
100
AcDbEntity
100
AcDbLine
  8
Group#1
 62
256
370
-1
  6
ByLayer
 10
1.4365852631928
 20
-0.204070336808223
 30
0.0
 11
1.4884480688030699
 21
-0.195503631968199
 31
0.0
  0
LINE
  5
5D
100
AcDbEntity
100
AcDbLine
  8
Group#1
 62
256
370
-1
  6
ByLayer
 10
1.4884480688030699
 20
-0.195503631968199
 30
0.0
 11
1.5590769797161099
 21
-0.174833231805921
 31
0.0
  0
LINE
  5
5E
100
AcDbEntity
100
AcDbLine
  8
Group#1
 62
256
370
-1
  6
ByLayer
 10
1.5590769797161099
 20
-0.174833231805921
 30
0.0
 11
1.64599392580503
 21
-0.137444566880124
 31
0.0
  0
LINE
  5
5F
100
AcDbEntity
100
AcDbLine
  8
Group#1
 62
256
370
-1
  6
ByLayer
 10
1.64599392580503
 20
-0.137444566880124
 30
0.0
 11
1.7458887143999799
 21
-0.0791826745547317
 31
0.0
  0
LINE
  5
60
100
AcDbEntity
100
AcDbLine
  8
Group#1
 62
256
370
-1
  6
ByLayer
 10
1.7458887143999799
 20
-0.0791826745547317
 30
0.0
 11
1.7482792341715201
 21
-0.0775868504622458
 31
0.0
  0
LINE
  5
61
100
AcDbEntity
100
AcDbLine
  8
Group#1
 62
256
370
-1
  6
ByLayer
 10
1.7482792341715201
 20
-0.0775868504622458
 30
0.0
 11
1.7482792341715201
 21
0.0775868504622458
 31
0.0
  0
LINE
  5
62
100
AcDbEntity
100
AcDbLine
  8
Group#1
 62
256
370
-1
  6
ByLayer
 10
1.7482792341715201
 20
0.0775868504622458
 30
0.0
 11
1.7458887143999799
 21
0.0791826745547315
 31
0.0
  0
LINE
  5
63
100
AcDbEntity
100
AcDbLine
  8
Group#1
 62
256
370
-1
  6
ByLayer
 10
1.7458887143999799
 20
0.0791826745547315
 30
0.0
 11
1.64599392580503
 21
0.137444566880124
 31
0.0
  0
LINE
  5
64
100
AcDbEntity
100
AcDbLine
  8
Group#1
 62
256
370
-1
  6
ByLayer
 10
1.64599392580503
 20
0.137444566880124
 30
0.0
 11
1.5590769797161099
 21
0.174833231805921
 31
0.0
  0
LINE
  5
65
100
AcDbEntity
100
AcDbLine
  8
Group#1
 62
256
370
-1
  6
ByLayer
 10
1.5590769797161099
 20
0.174833231805921
 30
0.0
 11
1.4884480688030699
 21
0.195503631968199
 31
0.0
  0
LINE
  5
66
100
AcDbEntity
100
AcDbLine
  8
Group#1
 62
256
370
-1
  6
ByLayer
 10
1.4884480688030699
 20
0.195503631968199
 30
0.0
 11
1.4365852631928
 21
0.204070336808223
 31
0.0
  0
LINE
  5
67
100
AcDbEntity
100
AcDbLine
  8
Group#1
 62
256
370
-1
  6
ByLayer
 10
1.4365852631928
 20
0.204070336808223
 30
0.0
 11
1.40507632236171
 21
0.205465343591253
 31
0.0
  0
LINE
  5
68
100
AcDbEntity
100
AcDbLine
  8
Group#1
 62
256
370
-1
  6
ByLayer
 10
1.40507632236171
 20
0.205465343591253
 30
0.0
 11
1.2367367535707701
 21
0.181610028267235
 31
0.0
  0
LINE
  5
69
100
AcDbEntity
100
AcDbLine
  8
Group#1
 62
256
370
-1
  6
ByLayer
 10
1.2367367535707701
 20
0.181610028267235
 30
0.0
 11
1.2165559890512501
 21
0.183961457869036
 31
0.0
  0
LINE
  5
6A
100
AcDbEntity
100
AcDbLine
  8
Group#1
 62
256
370
-1
  6
ByLayer
 10
1.2165559890512501
 20
0.183961457869036
 30
0.0
 11
1.20025464911045
 21
0.196088237899167
 31
0.0
  0
LINE
  5
6B
100
AcDbEntity
100
AcDbLine
  8
Group#1
 62
256
370
-1
  6
ByLayer
 10
1.20025464911045
 20
0.196088237899167
 30
0.0
 11
1.1922006646210599
 21
0.214741007441767
 31
0.0
  0
LINE
  5
6C
100
AcDbEntity
100
AcDbLine
  8
Group#1
 62
256
370
-1
  6
ByLayer
 10
1.1922006646210599
 20
0.214741007441767
 30
0.0
 11
1.1398465656914101
 21
0.410129164631696
 31
0.0
  0
LINE
  5
6D
100
AcDbEntity
100
AcDbLine
  8
Group#1
 62
256
370
-1
  6
ByLayer
 10
1.1398465656914101
 20
0.410129164631696
 30
0.0
 11
1.1374951360896099
 21
0.43030992915122
 31
0.0
  0
LINE
  5
6E
100
AcDbEntity
100
AcDbLine
  8
Group#1
 62
256
370
-1
  6
ByLayer
 10
1.1374951360896099
 20
0.43030992915122
 30
0.0
 11
1.145549120579
 21
0.448962698693819
 31
0.0
  0
LINE
  5
6F
100
AcDbEntity
100
AcDbLine
  8
Group#1
 62
256
370
-1
  6
ByLayer
 10
1.145549120579
 20
0.448962698693819
 30
0.0
 11
1.1618504605197999
 21
0.46108947872395
 31
0.0
  0
LINE
  5
70
100
AcDbEntity
100
AcDbLine
  8
Group#1
 62
256
370
-1
  6
ByLayer
 10
1.1618504605197999
 20
0.46108947872395
 30
0.0
 11
1.31956446121688
 21
0.524599954033531
 31
0.0
  0
LINE
  5
71
100
AcDbEntity
100
AcDbLine
  8
Group#1
 62
256
370
-1
  6
ByLayer
 10
1.31956446121688
 20
0.524599954033531
 30
0.0
 11
1.34615450103143
 21
0.54156253576163
 31
0.0
  0
LINE
  5
72
100
AcDbEntity
100
AcDbLine
  8
Group#1
 62
256
370
-1
  6
ByLayer
 10
1.34615450103143
 20
0.54156253576163
 30
0.0
 11
1.38678565578145
 21
0.574912922584952
 31
0.0
  0
LINE
  5
73
100
AcDbEntity
100
AcDbLine
  8
Group#1
 62
256
370
-1
  6
ByLayer
 10
1.38678565578145
 20
0.574912922584952
 30
0.0
 11
1.43761688679263
 21
0.628128469688393
 31
0.0
  0
LINE
  5
74
100
AcDbEntity
100
AcDbLine
  8
Group#1
 62
256
370
-1
  6
ByLayer
 10
1.43761688679263
 20
0.628128469688393
 30
0.0
 11
1.4941948376620899
 21
0.703966476372176
 31
0.0
  0
LINE
  5
75
100
AcDbEntity
100
AcDbLine
  8
Group#1
 62
256
370
-1
  6
ByLayer
 10
1.4941948376620899
 20
0.703966476372176
 30
0.0
 11
1.5515753161282999
 21
0.8043701494959949
 31
0.0
  0
LINE
  5
76
100
AcDbEntity
100
AcDbLine
  8
Group#1
 62
256
370
-1
  6
ByLayer
 10
1.5515753161282999
 20
0.8043701494959949
 30
0.0
 11
1.5528476549324599
 21
0.80694743358583
 31
0.0
  0
LINE
  5
77
100
AcDbEntity
100
AcDbLine
  8
Group#1
 62
256
370
-1
  6
ByLayer
 10
1.5528476549324599
 20
0.80694743358583
 30
0.0
 11
1.47526080447022
 21
0.941331800585688
 31
0.0
  0
LINE
  5
78
100
AcDbEntity
100
AcDbLine
  8
Group#1
 62
256
370
-1
  6
ByLayer
 10
1.47526080447022
 20
0.941331800585688
 30
0.0
 11
1.47239264157357
 21
0.941518564903982
 31
0.0
  0
LINE
  5
79
100
AcDbEntity
100
AcDbLine
  8
Group#1
 62
256
370
-1
  6
ByLayer
 10
1.47239264157357
 20
0.941518564903982
 30
0.0
 11
1.3567502707819701
 21
0.942027449432849
 31
0.0
  0
LINE
  5
7A
100
AcDbEntity
100
AcDbLine
  8
Group#1
 62
256
370
-1
  6
ByLayer
 10
1.3567502707819701
 20
0.942027449432849
 30
0.0
 11
1.26278365498671
 21
0.9309485100277149
 31
0.0
  0
LINE
  5
7B
100
AcDbEntity
100
AcDbLine
  8
Group#1
 62
256
370
-1
  6
ByLayer
 10
1.26278365498671
 20
0.9309485100277149
 30
0.0
 11
1.19128202381325
 21
0.913535146218119
 31
0.0
  0
LINE
  5
7C
100
AcDbEntity
100
AcDbLine
  8
Group#1
 62
256
370
-1
  6
ByLayer
 10
1.19128202381325
 20
0.913535146218119
 30
0.0
 11
1.1420841642232
 21
0.895022727431166
 31
0.0
  0
LINE
  5
7D
100
AcDbEntity
100
AcDbLine
  8
Group#1
 62
256
370
-1
  6
ByLayer
 10
1.1420841642232
 20
0.895022727431166
 30
0.0
 11
1.1140991176256301
 21
0.880476368328177
 31
0.0
  0
LINE
  5
7E
100
AcDbEntity
100
AcDbLine
  8
Group#1
 62
256
370
-1
  6
ByLayer
 10
1.1140991176256301
 20
0.880476368328177
 30
0.0
 11
0.980240432252566
 21
0.7756472748468221
 31
0.0
  0
LINE
  5
7F
100
AcDbEntity
100
AcDbLine
  8
Group#1
 62
256
370
-1
  6
ByLayer
 10
0.980240432252566
 20
0.7756472748468221
 30
0.0
 11
0.961587662709967
 21
0.76759329035743
 31
0.0
  0
LINE
  5
80
100
AcDbEntity
100
AcDbLine
  8
Group#1
 62
256
370
-1
  6
ByLayer
 10
0.961587662709967
 20
0.76759329035743
 30
0.0
 11
0.941406898190444
 21
0.769944719959231
 31
0.0
  0
LINE
  5
81
100
AcDbEntity
100
AcDbLine
  8
Group#1
 62
256
370
-1
  6
ByLayer
 10
0.941406898190444
 20
0.769944719959231
 30
0.0
 11
0.925105558249646
 21
0.782071499989363
 31
0.0
  0
LINE
  5
82
100
AcDbEntity
100
AcDbLine
  8
Group#1
 62
256
370
-1
  6
ByLayer
 10
0.925105558249646
 20
0.782071499989363
 30
0.0
 11
0.782071499989363
 21
0.925105558249645
 31
0.0
  0
LINE
  5
83
100
AcDbEntity
100
AcDbLine
  8
Group#1
 62
256
370
-1
  6
ByLayer
 10
0.782071499989363
 20
0.925105558249645
 30
0.0
 11
0.769944719959231
 21
0.941406898190444
 31
0.0
  0
LINE
  5
84
100
AcDbEntity
100
AcDbLine
  8
Group#1
 62
256
370
-1
  6
ByLayer
 10
0.769944719959231
 20
0.941406898190444
 30
0.0
 11
0.767593290357431
 21
0.961587662709967
 31
0.0
  0
LINE
  5
85
100
AcDbEntity
100
AcDbLine
  8
Group#1
 62
256
370
-1
  6
ByLayer
 10
0.767593290357431
 20
0.961587662709967
 30
0.0
 11
0.7756472748468221
 21
0.980240432252566
 31
0.0
  0
LINE
  5
86
100
AcDbEntity
100
AcDbLine
  8
Group#1
 62
256
370
-1
  6
ByLayer
 10
0.7756472748468221
 20
0.980240432252566
 30
0.0
 11
0.880476368328177
 21
1.1140991176256301
 31
0.0
  0
LINE
  5
87
100
AcDbEntity
100
AcDbLine
  8
Group#1
 62
256
370
-1
  6
ByLayer
 10
0.880476368328177
 20
1.1140991176256301
 30
0.0
 11
0.895022727431166
 21
1.1420841642232
 31
0.0
  0
LINE
  5
88
100
AcDbEntity
100
AcDbLine
  8
Group#1
 62
256
370
-1
  6
ByLayer
 10
0.895022727431166
 20
1.1420841642232
 30
0.0
 11
0.913535146218119
 21
1.19128202381325
 31
0.0
  0
LINE
  5
89
100
AcDbEntity
100
AcDbLine
  8
Group#1
 62
256
370
-1
  6
ByLayer
 10
0.913535146218119
 20
1.19128202381325
 30
0.0
 11
0.9309485100277149
 21
1.26278365498671
 31
0.0
  0
LINE
  5
8A
100
AcDbEntity
100
AcDbLine
  8
Group#1
 62
256
370
-1
  6
ByLayer
 10
0.9309485100277149
 20
1.26278365498671
 30
0.0
 11
0.942027449432849
 21
1.3567502707819701
 31
0.0
  0
LINE
  5
8B
100
AcDbEntity
100
AcDbLine
  8
Group#1
 62
256
370
-1
  6
ByLayer
 10
0.942027449432849
 20
1.3567502707819701
 30
0.0
 11
0.941518564903982
 21
1.47239264157357
 31
0.0
  0
LINE
  5
8C
100
AcDbEntity
100
AcDbLine
  8
Group#1
 62
256
370
-1
  6
ByLayer
 10
0.941518564903982
 20
1.47239264157357
 30
0.0
 11
0.941331800585688
 21
1.47526080447021
 31
0.0
  0
LINE
  5
8D
100
AcDbEntity
100
AcDbLine
  8
Group#1
 62
256
370
-1
  6
ByLayer
 10
0.941331800585688
 20
1.47526080447021
 30
0.0
 11
0.80694743358583
 21
1.5528476549324599
 31
0.0
  0
LINE
  5
8E
100
AcDbEntity
100
AcDbLine
  8
Group#1
 62
256
370
-1
  6
ByLayer
 10
0.80694743358583
 20
1.5528476549324599
 30
0.0
 11
0.8043701494959949
 21
1.5515753161282999
 31
0.0
  0
LINE
  5
8F
100
AcDbEntity
100
AcDbLine
  8
Group#1
 62
256
370
-1
  6
ByLayer
 10
0.8043701494959949
 20
1.5515753161282999
 30
0.0
 11
0.703966476372176
 21
1.4941948376620899
 31
0.0
  0
LINE
  5
90
100
AcDbEntity
100
AcDbLine
  8
Group#1
 62
256
370
-1
  6
ByLayer
 10
0.703966476372176
 20
1.4941948376620899
 30
0.0
 11
0.628128469688393
 21
1.43761688679263
 31
0.0
  0
LINE
  5
91
100
AcDbEntity
100
AcDbLine
  8
Group#1
 62
256
370
-1
  6
ByLayer
 10
0.628128469688393
 20
1.43761688679263
 30
0.0
 11
0.574912922584952
 21
1.38678565578145
 31
0.0
  0
LINE
  5
92
100
AcDbEntity
100
AcDbLine
  8
Group#1
 62
256
370
-1
  6
ByLayer
 10
0.574912922584952
 20
1.38678565578145
 30
0.0
 11
0.541562535761631
 21
1.34615450103143
 31
0.0
  0
LINE
  5
93
100
AcDbEntity
100
AcDbLine
  8
Group#1
 62
256
370
-1
  6
ByLayer
 10
0.541562535761631
 20
1.34615450103143
 30
0.0
 11
0.524599954033531
 21
1.31956446121688
 31
0.0
  0
LINE
  5
94
100
AcDbEntity
100
AcDbLine
  8
Group#1
 62
256
370
-1
  6
ByLayer
 10
0.524599954033531
 20
1.31956446121688
 30
0.0
 11
0.46108947872395
 21
1.1618504605197999
 31
0.0
  0
LINE
  5
95
100
AcDbEntity
100
AcDbLine
  8
Group#1
 62
256
370
-1
  6
ByLayer
 10
0.46108947872395
 20
1.1618504605197999
 30
0.0
 11
0.448962698693819
 21
1.145549120579
 31
0.0
  0
LINE
  5
96
100
AcDbEntity
100
AcDbLine
  8
Group#1
 62
256
370
-1
  6
ByLayer
 10
0.448962698693819
 20
1.145549120579
 30
0.0
 11
0.43030992915122
 21
1.1374951360896099
 31
0.0
  0
LINE
  5
97
100
AcDbEntity
100
AcDbLine
  8
Group#1
 62
256
370
-1
  6
ByLayer
 10
0.43030992915122
 20
1.1374951360896099
 30
0.0
 11
0.410129164631697
 21
1.1398465656914101
 31
0.0
  0
LINE
  5
98
100
AcDbEntity
100
AcDbLine
  8
Group#1
 62
256
370
-1
  6
ByLayer
 10
0.410129164631697
 20
1.1398465656914101
 30
0.0
 11
0.214741007441767
 21
1.1922006646210599
 31
0.0
  0
LINE
  5
99
100
AcDbEntity
100
AcDbLine
  8
Group#1
 62
256
370
-1
  6
ByLayer
 10
0.214741007441767
 20
1.1922006646210599
 30
0.0
 11
0.196088237899168
 21
1.20025464911045
 31
0.0
  0
LINE
  5
9A
100
AcDbEntity
100
AcDbLine
  8
Group#1
 62
256
370
-1
  6
ByLayer
 10
0.196088237899168
 20
1.20025464911045
 30
0.0
 11
0.183961457869036
 21
1.2165559890512501
 31
0.0
  0
LINE
  5
9B
100
AcDbEntity
100
AcDbLine
  8
Group#1
 62
256
370
-1
  6
ByLayer
 10
0.183961457869036
 20
1.2165559890512501
 30
0.0
 11
0.181610028267236
 21
1.2367367535707701
 31
0.0
  0
LINE
  5
9C
100
AcDbEntity
100
AcDbLine
  8
Group#1
 62
256
370
-1
  6
ByLayer
 10
0.181610028267236
 20
1.2367367535707701
 30
0.0
 11
0.205465343591253
 21
1.40507632236171
 31
0.0
  0
LINE
  5
9D
100
AcDbEntity
100
AcDbLine
  8
Group#1
 62
256
370
-1
  6
ByLayer
 10
0.205465343591253
 20
1.40507632236171
 30
0.0
 11
0.204070336808223
 21
1.4365852631928
 31
0.0
  0
LINE
  5
9E
100
AcDbEntity
100
AcDbLine
  8
Group#1
 62
256
370
-1
  6
ByLayer
 10
0.204070336808223
 20
1.4365852631928
 30
0.0
 11
0.195503631968199
 21
1.4884480688030699
 31
0.0
  0
LINE
  5
9F
100
AcDbEntity
100
AcDbLine
  8
Group#1
 62
256
370
-1
  6
ByLayer
 10
0.195503631968199
 20
1.4884480688030699
 30
0.0
 11
0.174833231805921
 21
1.5590769797161099
 31
0.0
  0
LINE
  5
A0
100
AcDbEntity
100
AcDbLine
  8
Group#1
 62
256
370
-1
  6
ByLayer
 10
0.174833231805921
 20
1.5590769797161099
 30
0.0
 11
0.137444566880124
 21
1.64599392580503
 31
0.0
  0
LINE
  5
A1
100
AcDbEntity
100
AcDbLine
  8
Group#1
 62
256
370
-1
  6
ByLayer
 10
0.137444566880124
 20
1.64599392580503
 30
0.0
 11
0.0791826745547318
 21
1.7458887143999799
 31
0.0
  0
LINE
  5
A2
100
AcDbEntity
100
AcDbLine
  8
Group#1
 62
256
370
-1
  6
ByLayer
 10
0.0791826745547318
 20
1.7458887143999799
 30
0.0
 11
0.0775868504622459
 21
1.7482792341715201
 31
0.0
  0
LINE
  5
A3
100
AcDbEntity
100
AcDbLine
  8
Group#1
 62
256
370
-1
  6
ByLayer
 10
0.0775868504622459
 20
1.7482792341715201
 30
0.0
 11
-0.0775868504622457
 21
1.7482792341715201
 31
0.0
  0
LINE
  5
A4
100
AcDbEntity
100
AcDbLine
  8
Group#1
 62
256
370
-1
  6
ByLayer
 10
-0.0775868504622457
 20
1.7482792341715201
 30
0.0
 11
-0.0791826745547313
 21
1.7458887143999799
 31
0.0
  0
LINE
  5
A5
100
AcDbEntity
100
AcDbLine
  8
Group#1
 62
256
370
-1
  6
ByLayer
 10
-0.0791826745547313
 20
1.7458887143999799
 30
0.0
 11
-0.137444566880124
 21
1.64599392580503
 31
0.0
  0
LINE
  5
A6
100
AcDbEntity
100
AcDbLine
  8
Group#1
 62
256
370
-1
  6
ByLayer
 10
-0.137444566880124
 20
1.64599392580503
 30
0.0
 11
-0.174833231805921
 21
1.5590769797161099
 31
0.0
  0
LINE
  5
A7
100
AcDbEntity
100
AcDbLine
  8
Group#1
 62
256
370
-1
  6
ByLayer
 10
-0.174833231805921
 20
1.5590769797161099
 30
0.0
 11
-0.195503631968199
 21
1.4884480688030699
 31
0.0
  0
LINE
  5
A8
100
AcDbEntity
100
AcDbLine
  8
Group#1
 62
256
370
-1
  6
ByLayer
 10
-0.195503631968199
 20
1.4884480688030699
 30
0.0
 11
-0.204070336808223
 21
1.4365852631928
 31
0.0
  0
LINE
  5
A9
100
AcDbEntity
100
AcDbLine
  8
Group#1
 62
256
370
-1
  6
ByLayer
 10
-0.204070336808223
 20
1.4365852631928
 30
0.0
 11
-0.205465343591252
 21
1.40507632236171
 31
0.0
  0
LINE
  5
AA
100
AcDbEntity
100
AcDbLine
  8
Group#1
 62
256
370
-1
  6
ByLayer
 10
-0.205465343591252
 20
1.40507632236171
 30
0.0
 11
-0.181610028267235
 21
1.2367367535707701
 31
0.0
  0
LINE
  5
AB
100
AcDbEntity
100
AcDbLine
  8
Group#1
 62
256
370
-1
  6
ByLayer
 10
-0.181610028267235
 20
1.2367367535707701
 30
0.0
 11
-0.183961457869036
 21
1.2165559890512501
 31
0.0
  0
LINE
  5
AC
100
AcDbEntity
100
AcDbLine
  8
Group#1
 62
256
370
-1
  6
ByLayer
 10
-0.183961457869036
 20
1.2165559890512501
 30
0.0
 11
-0.196088237899167
 21
1.20025464911045
 31
0.0
  0
LINE
  5
AD
100
AcDbEntity
100
AcDbLine
  8
Group#1
 62
256
370
-1
  6
ByLayer
 10
-0.196088237899167
 20
1.20025464911045
 30
0.0
 11
-0.214741007441766
 21
1.1922006646210599
 31
0.0
  0
LINE
  5
AE
100
AcDbEntity
100
AcDbLine
  8
Group#1
 62
256
370
-1
  6
ByLayer
 10
-0.214741007441766
 20
1.1922006646210599
 30
0.0
 11
-0.410129164631696
 21
1.1398465656914101
 31
0.0
  0
LINE
  5
AF
100
AcDbEntity
100
AcDbLine
  8
Group#1
 62
256
370
-1
  6
ByLayer
 10
-0.410129164631696
 20
1.1398465656914101
 30
0.0
 11
-0.43030992915122
 21
1.1374951360896099
 31
0.0
  0
LINE
  5
B0
100
AcDbEntity
100
AcDbLine
  8
Group#1
 62
256
370
-1
  6
ByLayer
 10
-0.43030992915122
 20
1.1374951360896099
 30
0.0
 11
-0.448962698693819
 21
1.145549120579
 31
0.0
  0
LINE
  5
B1
100
AcDbEntity
100
AcDbLine
  8
Group#1
 62
256
370
-1
  6
ByLayer
 10
-0.448962698693819
 20
1.145549120579
 30
0.0
 11
-0.46108947872395
 21
1.1618504605197999
 31
0.0
  0
LINE
  5
B2
100
AcDbEntity
100
AcDbLine
  8
Group#1
 62
256
370
-1
  6
ByLayer
 10
-0.46108947872395
 20
1.1618504605197999
 30
0.0
 11
-0.52459995403353
 21
1.31956446121688
 31
0.0
  0
LINE
  5
B3
100
AcDbEntity
100
AcDbLine
  8
Group#1
 62
256
370
-1
  6
ByLayer
 10
-0.52459995403353
 20
1.31956446121688
 30
0.0
 11
-0.54156253576163
 21
1.34615450103143
 31
0.0
  0
LINE
  5
B4
100
AcDbEntity
100
AcDbLine
  8
Group#1
 62
256
370
-1
  6
ByLayer
 10
-0.54156253576163
 20
1.34615450103143
 30
0.0
 11
-0.574912922584952
 21
1.38678565578145
 31
0.0
  0
LINE
  5
B5
100
AcDbEntity
100
AcDbLine
  8
Group#1
 62
256
370
-1
  6
ByLayer
 10
-0.574912922584952
 20
1.38678565578145
 30
0.0
 11
-0.628128469688393
 21
1.43761688679263
 31
0.0
  0
LINE
  5
B6
100
AcDbEntity
100
AcDbLine
  8
Group#1
 62
256
370
-1
  6
ByLayer
 10
-0.628128469688393
 20
1.43761688679263
 30
0.0
 11
-0.703966476372176
 21
1.4941948376620899
 31
0.0
  0
LINE
  5
B7
100
AcDbEntity
100
AcDbLine
  8
Group#1
 62
256
370
-1
  6
ByLayer
 10
-0.703966476372176
 20
1.4941948376620899
 30
0.0
 11
-0.8043701494959949
 21
1.5515753161282999
 31
0.0
  0
LINE
  5
B8
100
AcDbEntity
100
AcDbLine
  8
Group#1
 62
256
370
-1
  6
ByLayer
 10
-0.8043701494959949
 20
1.5515753161282999
 30
0.0
 11
-0.806947433585829
 21
1.5528476549324599
 31
0.0
  0
LINE
  5
B9
100
AcDbEntity
100
AcDbLine
  8
Group#1
 62
256
370
-1
  6
ByLayer
 10
-0.806947433585829
 20
1.5528476549324599
 30
0.0
 11
-0.941331800585688
 21
1.47526080447022
 31
0.0
  0
LINE
  5
BA
100
AcDbEntity
100
AcDbLine
  8
Group#1
 62
256
370
-1
  6
ByLayer
 10
-0.941331800585688
 20
1.47526080447022
 30
0.0
 11
-0.941518564903982
 21
1.47239264157357
 31
0.0
  0
LINE
  5
BB
100
AcDbEntity
100
AcDbLine
  8
Group#1
 62
256
370
-1
  6
ByLayer
 10
-0.941518564903982
 20
1.47239264157357
 30
0.0
 11
-0.94202744943285
 21
1.3567502707819701
 31
0.0
  0
LINE
  5
BC
100
AcDbEntity
100
AcDbLine
  8
Group#1
 62
256
370
-1
  6
ByLayer
 10
-0.94202744943285
 20
1.3567502707819701
 30
0.0
 11
-0.9309485100277159
 21
1.26278365498671
 31
0.0
  0
LINE
  5
BD
100
AcDbEntity
100
AcDbLine
  8
Group#1
 62
256
370
-1
  6
ByLayer
 10
-0.9309485100277159
 20
1.26278365498671
 30
0.0
 11
-0.913535146218119
 21
1.19128202381325
 31
0.0
  0
LINE
  5
BE
100
AcDbEntity
100
AcDbLine
  8
Group#1
 62
256
370
-1
  6
ByLayer
 10
-0.913535146218119
 20
1.19128202381325
 30
0.0
 11
-0.895022727431166
 21
1.1420841642232
 31
0.0
  0
LINE
  5
BF
100
AcDbEntity
100
AcDbLine
  8
Group#1
 62
256
370
-1
  6
ByLayer
 10
-0.895022727431166
 20
1.1420841642232
 30
0.0
 11
-0.880476368328177
 21
1.1140991176256301
 31
0.0
  0
LINE
  5
C0
100
AcDbEntity
100
AcDbLine
  8
Group#1
 62
256
370
-1
  6
ByLayer
 10
-0.880476368328177
 20
1.1140991176256301
 30
0.0
 11
-0.7756472748468221
 21
0.980240432252566
 31
0.0
  0
LINE
  5
C1
100
AcDbEntity
100
AcDbLine
  8
Group#1
 62
256
370
-1
  6
ByLayer
 10
-0.7756472748468221
 20
0.980240432252566
 30
0.0
 11
-0.767593290357431
 21
0.961587662709967
 31
0.0
  0
LINE
  5
C2
100
AcDbEntity
100
AcDbLine
  8
Group#1
 62
256
370
-1
  6
ByLayer
 10
-0.767593290357431
 20
0.961587662709967
 30
0.0
 11
-0.769944719959231
 21
0.941406898190444
 31
0.0
  0
LINE
  5
C3
100
AcDbEntity
100
AcDbLine
  8
Group#1
 62
256
370
-1
  6
ByLayer
 10
-0.769944719959231
 20
0.941406898190444
 30
0.0
 11
-0.782071499989363
 21
0.925105558249645
 31
0.0
  0
LINE
  5
C4
100
AcDbEntity
100
AcDbLine
  8
Group#1
 62
256
370
-1
  6
ByLayer
 10
-0.782071499989363
 20
0.925105558249645
 30
0.0
 11
-0.925105558249646
 21
0.782071499989362
 31
0.0
  0
LINE
  5
C5
100
AcDbEntity
100
AcDbLine
  8
Group#1
 62
256
370
-1
  6
ByLayer
 10
-0.925105558249646
 20
0.782071499989362
 30
0.0
 11
-0.941406898190444
 21
0.769944719959231
 31
0.0
  0
LINE
  5
C6
100
AcDbEntity
100
AcDbLine
  8
Group#1
 62
256
370
-1
  6
ByLayer
 10
-0.941406898190444
 20
0.769944719959231
 30
0.0
 11
-0.961587662709967
 21
0.767593290357431
 31
0.0
  0
LINE
  5
C7
100
AcDbEntity
100
AcDbLine
  8
Group#1
 62
256
370
-1
  6
ByLayer
 10
-0.961587662709967
 20
0.767593290357431
 30
0.0
 11
-0.980240432252566
 21
0.7756472748468221
 31
0.0
  0
LINE
  5
C8
100
AcDbEntity
100
AcDbLine
  8
Group#1
 62
256
370
-1
  6
ByLayer
 10
-0.980240432252566
 20
0.7756472748468221
 30
0.0
 11
-1.1140991176256301
 21
0.880476368328177
 31
0.0
  0
LINE
  5
C9
100
AcDbEntity
100
AcDbLine
  8
Group#1
 62
256
370
-1
  6
ByLayer
 10
-1.1140991176256301
 20
0.880476368328177
 30
0.0
 11
-1.1420841642232
 21
0.895022727431166
 31
0.0
  0
LINE
  5
CA
100
AcDbEntity
100
AcDbLine
  8
Group#1
 62
256
370
-1
  6
ByLayer
 10
-1.1420841642232
 20
0.895022727431166
 30
0.0
 11
-1.19128202381325
 21
0.913535146218119
 31
0.0
  0
LINE
  5
CB
100
AcDbEntity
100
AcDbLine
  8
Group#1
 62
256
370
-1
  6
ByLayer
 10
-1.19128202381325
 20
0.913535146218119
 30
0.0
 11
-1.26278365498671
 21
0.9309485100277149
 31
0.0
  0
LINE
  5
CC
100
AcDbEntity
100
AcDbLine
  8
Group#1
 62
256
370
-1
  6
ByLayer
 10
-1.26278365498671
 20
0.9309485100277149
 30
0.0
 11
-1.3567502707819701
 21
0.942027449432849
 31
0.0
  0
LINE
  5
CD
100
AcDbEntity
100
AcDbLine
  8
Group#1
 62
256
370
-1
  6
ByLayer
 10
-1.3567502707819701
 20
0.942027449432849
 30
0.0
 11
-1.47239264157357
 21
0.941518564903982
 31
0.0
  0
LINE
  5
CE
100
AcDbEntity
100
AcDbLine
  8
Group#1
 62
256
370
-1
  6
ByLayer
 10
-1.47239264157357
 20
0.941518564903982
 30
0.0
 11
-1.47526080447022
 21
0.941331800585688
 31
0.0
  0
LINE
  5
CF
100
AcDbEntity
100
AcDbLine
  8
Group#1
 62
256
370
-1
  6
ByLayer
 10
-1.47526080447022
 20
0.941331800585688
 30
0.0
 11
-1.5528476549324599
 21
0.80694743358583
 31
0.0
  0
LINE
  5
D0
100
AcDbEntity
100
AcDbLine
  8
Group#1
 62
256
370
-1
  6
ByLayer
 10
-1.5528476549324599
 20
0.80694743358583
 30
0.0
 11
-1.5515753161282999
 21
0.8043701494959959
 31
0.0
  0
LINE
  5
D1
100
AcDbEntity
100
AcDbLine
  8
Group#1
 62
256
370
-1
  6
ByLayer
 10
-1.5515753161282999
 20
0.8043701494959959
 30
0.0
 11
-1.4941948376620899
 21
0.703966476372176
 31
0.0
  0
LINE
  5
D2
100
AcDbEntity
100
AcDbLine
  8
Group#1
 62
256
370
-1
  6
ByLayer
 10
-1.4941948376620899
 20
0.703966476372176
 30
0.0
 11
-1.43761688679263
 21
0.628128469688393
 31
0.0
  0
LINE
  5
D3
100
AcDbEntity
100
AcDbLine
  8
Group#1
 62
256
370
-1
  6
ByLayer
 10
-1.43761688679263
 20
0.628128469688393
 30
0.0
 11
-1.38678565578145
 21
0.574912922584952
 31
0.0
  0
LINE
  5
D4
100
AcDbEntity
100
AcDbLine
  8
Group#1
 62
256
370
-1
  6
ByLayer
 10
-1.38678565578145
 20
0.574912922584952
 30
0.0
 11
-1.34615450103143
 21
0.541562535761631
 31
0.0
  0
LINE
  5
D5
100
AcDbEntity
100
AcDbLine
  8
Group#1
 62
256
370
-1
  6
ByLayer
 10
-1.34615450103143
 20
0.541562535761631
 30
0.0
 11
-1.31956446121688
 21
0.524599954033531
 31
0.0
  0
LINE
  5
D6
100
AcDbEntity
100
AcDbLine
  8
Group#1
 62
256
370
-1
  6
ByLayer
 10
-1.31956446121688
 20
0.524599954033531
 30
0.0
 11
-1.1618504605197999
 21
0.46108947872395
 31
0.0
  0
LINE
  5
D7
100
AcDbEntity
100
AcDbLine
  8
Group#1
 62
256
370
-1
  6
ByLayer
 10
-1.1618504605197999
 20
0.46108947872395
 30
0.0
 11
-1.145549120579
 21
0.448962698693819
 31
0.0
  0
LINE
  5
D8
100
AcDbEntity
100
AcDbLine
  8
Group#1
 62
256
370
-1
  6
ByLayer
 10
-1.145549120579
 20
0.448962698693819
 30
0.0
 11
-1.1374951360896099
 21
0.43030992915122
 31
0.0
  0
LINE
  5
D9
100
AcDbEntity
100
AcDbLine
  8
Group#1
 62
256
370
-1
  6
ByLayer
 10
-1.1374951360896099
 20
0.43030992915122
 30
0.0
 11
-1.1398465656914101
 21
0.410129164631697
 31
0.0
  0
LINE
  5
DA
100
AcDbEntity
100
AcDbLine
  8
Group#1
 62
256
370
-1
  6
ByLayer
 10
-1.1398465656914101
 20
0.410129164631697
 30
0.0
 11
-1.1922006646210599
 21
0.214741007441767
 31
0.0
  0
LINE
  5
DB
100
AcDbEntity
100
AcDbLine
  8
Group#1
 62
256
370
-1
  6
ByLayer
 10
-1.1922006646210599
 20
0.214741007441767
 30
0.0
 11
-1.20025464911045
 21
0.196088237899168
 31
0.0
  0
LINE
  5
DC
100
AcDbEntity
100
AcDbLine
  8
Group#1
 62
256
370
-1
  6
ByLayer
 10
-1.20025464911045
 20
0.196088237899168
 30
0.0
 11
-1.2165559890512501
 21
0.183961457869036
 31
0.0
  0
LINE
  5
DD
100
AcDbEntity
100
AcDbLine
  8
Group#1
 62
256
370
-1
  6
ByLayer
 10
-1.2165559890512501
 20
0.183961457869036
 30
0.0
 11
-1.2367367535707701
 21
0.181610028267236
 31
0.0
  0
LINE
  5
DE
100
AcDbEntity
100
AcDbLine
  8
Group#1
 62
256
370
-1
  6
ByLayer
 10
-1.2367367535707701
 20
0.181610028267236
 30
0.0
 11
-1.40507632236171
 21
0.205465343591253
 31
0.0
  0
LINE
  5
DF
100
AcDbEntity
100
AcDbLine
  8
Group#1
 62
256
370
-1
  6
ByLayer
 10
-1.40507632236171
 20
0.205465343591253
 30
0.0
 11
-1.4365852631928
 21
0.204070336808223
 31
0.0
  0
LINE
  5
E0
100
AcDbEntity
100
AcDbLine
  8
Group#1
 62
256
370
-1
  6
ByLayer
 10
-1.4365852631928
 20
0.204070336808223
 30
0.0
 11
-1.4884480688030699
 21
0.195503631968199
 31
0.0
  0
LINE
  5
E1
100
AcDbEntity
100
AcDbLine
  8
Group#1
 62
256
370
-1
  6
ByLayer
 10
-1.4884480688030699
 20
0.195503631968199
 30
0.0
 11
-1.5590769797161099
 21
0.174833231805921
 31
0.0
  0
LINE
  5
E2
100
AcDbEntity
100
AcDbLine
  8
Group#1
 62
256
370
-1
  6
ByLayer
 10
-1.5590769797161099
 20
0.174833231805921
 30
0.0
 11
-1.64599392580503
 21
0.137444566880124
 31
0.0
  0
LINE
  5
E3
100
AcDbEntity
100
AcDbLine
  8
Group#1
 62
256
370
-1
  6
ByLayer
 10
-1.64599392580503
 20
0.137444566880124
 30
0.0
 11
-1.7458887143999799
 21
0.0791826745547319
 31
0.0
  0
LINE
  5
E4
100
AcDbEntity
100
AcDbLine
  8
Group#1
 62
256
370
-1
  6
ByLayer
 10
-1.7458887143999799
 20
0.0791826745547319
 30
0.0
 11
-1.7482792341715201
 21
0.077586850462246
 31
0.0
  0
LINE
  5
E5
100
AcDbEntity
100
AcDbLine
  8
Group#1
 62
256
370
-1
  6
ByLayer
 10
-1.7482792341715201
 20
0.077586850462246
 30
0.0
 11
-1.7482792341715201
 21
-0.0775868504622456
 31
0.0
  0
LINE
  5
E6
100
AcDbEntity
100
AcDbLine
  8
Group#1
 62
256
370
-1
  6
ByLayer
 10
-1.7482792341715201
 20
-0.0775868504622456
 30
0.0
 11
-1.7458887143999799
 21
-0.0791826745547312
 31
0.0
  0
LINE
  5
E7
100
AcDbEntity
100
AcDbLine
  8
Group#1
 62
256
370
-1
  6
ByLayer
 10
-1.7458887143999799
 20
-0.0791826745547312
 30
0.0
 11
-1.64599392580503
 21
-0.137444566880124
 31
0.0
  0
LINE
  5
E8
100
AcDbEntity
100
AcDbLine
  8
Group#1
 62
256
370
-1
  6
ByLayer
 10
-1.64599392580503
 20
-0.137444566880124
 30
0.0
 11
-1.5590769797161099
 21
-0.17483323180592
 31
0.0
  0
LINE
  5
E9
100
AcDbEntity
100
AcDbLine
  8
Group#1
 62
256
370
-1
  6
ByLayer
 10
-1.5590769797161099
 20
-0.17483323180592
 30
0.0
 11
-1.4884480688030699
 21
-0.195503631968198
 31
0.0
  0
LINE
  5
EA
100
AcDbEntity
100
AcDbLine
  8
Group#1
 62
256
370
-1
  6
ByLayer
 10
-1.4884480688030699
 20
-0.195503631968198
 30
0.0
 11
-1.4365852631928
 21
-0.204070336808223
 31
0.0
  0
LINE
  5
EB
100
AcDbEntity
100
AcDbLine
  8
Group#1
 62
256
370
-1
  6
ByLayer
 10
-1.4365852631928
 20
-0.204070336808223
 30
0.0
 11
-1.40507632236171
 21
-0.205465343591252
 31
0.0
  0
LINE
  5
EC
100
AcDbEntity
100
AcDbLine
  8
Group#1
 62
256
370
-1
  6
ByLayer
 10
-1.40507632236171
 20
-0.205465343591252
 30
0.0
 11
-1.2367367535707701
 21
-0.181610028267235
 31
0.0
  0
LINE
  5
ED
100
AcDbEntity
100
AcDbLine
  8
Group#1
 62
256
370
-1
  6
ByLayer
 10
-1.2367367535707701
 20
-0.181610028267235
 30
0.0
 11
-1.2165559890512501
 21
-0.183961457869036
 31
0.0
  0
LINE
  5
EE
100
AcDbEntity
100
AcDbLine
  8
Group#1
 62
256
370
-1
  6
ByLayer
 10
-1.2165559890512501
 20
-0.183961457869036
 30
0.0
 11
-1.20025464911045
 21
-0.196088237899167
 31
0.0
  0
LINE
  5
EF
100
AcDbEntity
100
AcDbLine
  8
Group#1
 62
256
370
-1
  6
ByLayer
 10
-1.20025464911045
 20
-0.196088237899167
 30
0.0
 11
-1.1922006646210599
 21
-0.214741007441766
 31
0.0
  0
LINE
  5
F0
100
AcDbEntity
100
AcDbLine
  8
Group#1
 62
256
370
-1
  6
ByLayer
 10
-1.1922006646210599
 20
-0.214741007441766
 30
0.0
 11
-1.1398465656914101
 21
-0.410129164631696
 31
0.0
  0
LINE
  5
F1
100
AcDbEntity
100
AcDbLine
  8
Group#1
 62
256
370
-1
  6
ByLayer
 10
-1.1398465656914101
 20
-0.410129164631696
 30
0.0
 11
-1.1374951360896099
 21
-0.430309929151219
 31
0.0
  0
LINE
  5
F2
100
AcDbEntity
100
AcDbLine
  8
Group#1
 62
256
370
-1
  6
ByLayer
 10
-1.1374951360896099
 20
-0.430309929151219
 30
0.0
 11
-1.145549120579
 21
-0.448962698693818
 31
0.0
  0
LINE
  5
F3
100
AcDbEntity
100
AcDbLine
  8
Group#1
 62
256
370
-1
  6
ByLayer
 10
-1.145549120579
 20
-0.448962698693818
 30
0.0
 11
-1.1618504605197999
 21
-0.46108947872395
 31
0.0
  0
LINE
  5
F4
100
AcDbEntity
100
AcDbLine
  8
Group#1
 62
256
370
-1
  6
ByLayer
 10
-1.1618504605197999
 20
-0.46108947872395
 30
0.0
 11
-1.31956446121688
 21
-0.52459995403353
 31
0.0
  0
LINE
  5
F5
100
AcDbEntity
100
AcDbLine
  8
Group#1
 62
256
370
-1
  6
ByLayer
 10
-1.31956446121688
 20
-0.52459995403353
 30
0.0
 11
-1.34615450103143
 21
-0.54156253576163
 31
0.0
  0
LINE
  5
F6
100
AcDbEntity
100
AcDbLine
  8
Group#1
 62
256
370
-1
  6
ByLayer
 10
-1.34615450103143
 20
-0.54156253576163
 30
0.0
 11
-1.38678565578145
 21
-0.574912922584952
 31
0.0
  0
LINE
  5
F7
100
AcDbEntity
100
AcDbLine
  8
Group#1
 62
256
370
-1
  6
ByLayer
 10
-1.38678565578145
 20
-0.574912922584952
 30
0.0
 11
-1.43761688679263
 21
-0.628128469688393
 31
0.0
  0
LINE
  5
F8
100
AcDbEntity
100
AcDbLine
  8
Group#1
 62
256
370
-1
  6
ByLayer
 10
-1.43761688679263
 20
-0.628128469688393
 30
0.0
 11
-1.4941948376620899
 21
-0.703966476372175
 31
0.0
  0
LINE
  5
F9
100
AcDbEntity
100
AcDbLine
  8
Group#1
 62
256
370
-1
  6
ByLayer
 10
-1.4941948376620899
 20
-0.703966476372175
 30
0.0
 11
-1.5515753161282999
 21
-0.8043701494959949
 31
0.0
  0
LINE
  5
FA
100
AcDbEntity
100
AcDbLine
  8
Group#1
 62
256
370
-1
  6
ByLayer
 10
-1.5515753161282999
 20
-0.8043701494959949
 30
0.0
 11
-1.5528476549324599
 21
-0.806947433585829
 31
0.0
  0
LINE
  5
FB
100
AcDbEntity
100
AcDbLine
  8
Group#1
 62
256
370
-1
  6
ByLayer
 10
-1.5528476549324599
 20
-0.806947433585829
 30
0.0
 11
-1.47526080447022
 21
-0.941331800585688
 31
0.0
  0
LINE
  5
FC
100
AcDbEntity
100
AcDbLine
  8
Group#1
 62
256
370
-1
  6
ByLayer
 10
-1.47526080447022
 20
-0.941331800585688
 30
0.0
 11
-1.47239264157357
 21
-0.941518564903981
 31
0.0
  0
LINE
  5
FD
100
AcDbEntity
100
AcDbLine
  8
Group#1
 62
256
370
-1
  6
ByLayer
 10
-1.47239264157357
 20
-0.941518564903981
 30
0.0
 11
-1.3567502707819701
 21
-0.942027449432849
 31
0.0
  0
LINE
  5
FE
100
AcDbEntity
100
AcDbLine
  8
Group#1
 62
256
370
-1
  6
ByLayer
 10
-1.3567502707819701
 20
-0.942027449432849
 30
0.0
 11
-1.26278365498671
 21
-0.9309485100277139
 31
0.0
  0
LINE
  5
FF
100
AcDbEntity
100
AcDbLine
  8
Group#1
 62
256
370
-1
  6
ByLayer
 10
-1.26278365498671
 20
-0.9309485100277139
 30
0.0
 11
-1.19128202381325
 21
-0.913535146218119
 31
0.0
  0
LINE
  5
100
100
AcDbEntity
100
AcDbLine
  8
Group#1
 62
256
370
-1
  6
ByLayer
 10
-1.19128202381325
 20
-0.913535146218119
 30
0.0
 11
-1.1420841642232
 21
-0.895022727431166
 31
0.0
  0
LINE
  5
101
100
AcDbEntity
100
AcDbLine
  8
Group#1
 62
256
370
-1
  6
ByLayer
 10
-1.1420841642232
 20
-0.895022727431166
 30
0.0
 11
-1.1140991176256301
 21
-0.880476368328176
 31
0.0
  0
LINE
  5
102
100
AcDbEntity
100
AcDbLine
  8
Group#1
 62
256
370
-1
  6
ByLayer
 10
-1.1140991176256301
 20
-0.880476368328176
 30
0.0
 11
-0.980240432252567
 21
-0.7756472748468221
 31
0.0
  0
LINE
  5
103
100
AcDbEntity
100
AcDbLine
  8
Group#1
 62
256
370
-1
  6
ByLayer
 10
-0.980240432252567
 20
-0.7756472748468221
 30
0.0
 11
-0.961587662709968
 21
-0.76759329035743
 31
0.0
  0
LINE
  5
104
100
AcDbEntity
100
AcDbLine
  8
Group#1
 62
256
370
-1
  6
ByLayer
 10
-0.961587662709968
 20
-0.76759329035743
 30
0.0
 11
-0.941406898190445
 21
-0.769944719959231
 31
0.0
  0
LINE
  5
105
100
AcDbEntity
100
AcDbLine
  8
Group#1
 62
256
370
-1
  6
ByLayer
 10
-0.941406898190445
 20
-0.769944719959231
 30
0.0
 11
-0.925105558249646
 21
-0.782071499989362
 31
0.0
  0
LINE
  5
106
100
AcDbEntity
100
AcDbLine
  8
Group#1
 62
256
370
-1
  6
ByLayer
 10
-0.925105558249646
 20
-0.782071499989362
 30
0.0
 11
-0.782071499989363
 21
-0.925105558249645
 31
0.0
  0
LINE
  5
107
100
AcDbEntity
100
AcDbLine
  8
Group#1
 62
256
370
-1
  6
ByLayer
 10
-0.782071499989363
 20
-0.925105558249645
 30
0.0
 11
-0.769944719959232
 21
-0.941406898190444
 31
0.0
  0
LINE
  5
108
100
AcDbEntity
100
AcDbLine
  8
Group#1
 62
256
370
-1
  6
ByLayer
 10
-0.769944719959232
 20
-0.941406898190444
 30
0.0
 11
-0.767593290357431
 21
-0.961587662709967
 31
0.0
  0
LINE
  5
109
100
AcDbEntity
100
AcDbLine
  8
Group#1
 62
256
370
-1
  6
ByLayer
 10
-0.767593290357431
 20
-0.961587662709967
 30
0.0
 11
-0.7756472748468231
 21
-0.980240432252566
 31
0.0
  0
LINE
  5
10A
100
AcDbEntity
100
AcDbLine
  8
Group#1
 62
256
370
-1
  6
ByLayer
 10
-0.7756472748468231
 20
-0.980240432252566
 30
0.0
 11
-0.880476368328177
 21
-1.1140991176256201
 31
0.0
  0
LINE
  5
10B
100
AcDbEntity
100
AcDbLine
  8
Group#1
 62
256
370
-1
  6
ByLayer
 10
-0.880476368328177
 20
-1.1140991176256201
 30
0.0
 11
-0.895022727431167
 21
-1.1420841642232
 31
0.0
  0
LINE
  5
10C
100
AcDbEntity
100
AcDbLine
  8
Group#1
 62
256
370
-1
  6
ByLayer
 10
-0.895022727431167
 20
-1.1420841642232
 30
0.0
 11
-0.91353514621812
 21
-1.19128202381325
 31
0.0
  0
LINE
  5
10D
100
AcDbEntity
100
AcDbLine
  8
Group#1
 62
256
370
-1
  6
ByLayer
 10
-0.91353514621812
 20
-1.19128202381325
 30
0.0
 11
-0.9309485100277159
 21
-1.2627836549867
 31
0.0
  0
LINE
  5
10E
100
AcDbEntity
100
AcDbLine
  8
Group#1
 62
256
370
-1
  6
ByLayer
 10
-0.9309485100277159
 20
-1.2627836549867
 30
0.0
 11
-0.94202744943285
 21
-1.3567502707819701
 31
0.0
  0
LINE
  5
10F
100
AcDbEntity
100
AcDbLine
  8
Group#1
 62
256
370
-1
  6
ByLayer
 10
-0.94202744943285
 20
-1.3567502707819701
 30
0.0
 11
-0.941518564903983
 21
-1.47239264157357
 31
0.0
  0
LINE
  5
110
100
AcDbEntity
100
AcDbLine
  8
Group#1
 62
256
370
-1
  6
ByLayer
 10
-0.941518564903983
 20
-1.47239264157357
 30
0.0
 11
-0.941331800585689
 21
-1.47526080447021
 31
0.0
  0
LINE
  5
111
100
AcDbEntity
100
AcDbLine
  8
Group#1
 62
256
370
-1
  6
ByLayer
 10
-0.941331800585689
 20
-1.47526080447021
 30
0.0
 11
-0.80694743358583
 21
-1.5528476549324599
 31
0.0
  0
LINE
  5
112
100
AcDbEntity
100
AcDbLine
  8
Group#1
 62
256
370
-1
  6
ByLayer
 10
-0.80694743358583
 20
-1.5528476549324599
 30
0.0
 11
-0.8043701494959959
 21
-1.5515753161282999
 31
0.0
  0
LINE
  5
113
100
AcDbEntity
100
AcDbLine
  8
Group#1
 62
256
370
-1
  6
ByLayer
 10
-0.8043701494959959
 20
-1.5515753161282999
 30
0.0
 11
-0.703966476372176
 21
-1.4941948376620899
 31
0.0
  0
LINE
  5
114
100
AcDbEntity
100
AcDbLine
  8
Group#1
 62
256
370
-1
  6
ByLayer
 10
-0.703966476372176
 20
-1.4941948376620899
 30
0.0
 11
-0.628128469688393
 21
-1.43761688679263
 31
0.0
  0
LINE
  5
115
100
AcDbEntity
100
AcDbLine
  8
Group#1
 62
256
370
-1
  6
ByLayer
 10
-0.628128469688393
 20
-1.43761688679263
 30
0.0
 11
-0.574912922584952
 21
-1.38678565578145
 31
0.0
  0
LINE
  5
116
100
AcDbEntity
100
AcDbLine
  8
Group#1
 62
256
370
-1
  6
ByLayer
 10
-0.574912922584952
 20
-1.38678565578145
 30
0.0
 11
-0.541562535761631
 21
-1.34615450103143
 31
0.0
  0
LINE
  5
117
100
AcDbEntity
100
AcDbLine
  8
Group#1
 62
256
370
-1
  6
ByLayer
 10
-0.541562535761631
 20
-1.34615450103143
 30
0.0
 11
-0.524599954033531
 21
-1.31956446121688
 31
0.0
  0
LINE
  5
118
100
AcDbEntity
100
AcDbLine
  8
Group#1
 62
256
370
-1
  6
ByLayer
 10
-0.524599954033531
 20
-1.31956446121688
 30
0.0
 11
-0.46108947872395
 21
-1.1618504605197999
 31
0.0
  0
LINE
  5
119
100
AcDbEntity
100
AcDbLine
  8
Group#1
 62
256
370
-1
  6
ByLayer
 10
-0.46108947872395
 20
-1.1618504605197999
 30
0.0
 11
-0.448962698693819
 21
-1.145549120579
 31
0.0
  0
LINE
  5
11A
100
AcDbEntity
100
AcDbLine
  8
Group#1
 62
256
370
-1
  6
ByLayer
 10
-0.448962698693819
 20
-1.145549120579
 30
0.0
 11
-0.43030992915122
 21
-1.1374951360896099
 31
0.0
  0
LINE
  5
11B
100
AcDbEntity
100
AcDbLine
  8
Group#1
 62
256
370
-1
  6
ByLayer
 10
-0.43030992915122
 20
-1.1374951360896099
 30
0.0
 11
-0.410129164631697
 21
-1.1398465656914101
 31
0.0
  0
LINE
  5
11C
100
AcDbEntity
100
AcDbLine
  8
Group#1
 62
256
370
-1
  6
ByLayer
 10
-0.410129164631697
 20
-1.1398465656914101
 30
0.0
 11
-0.214741007441767
 21
-1.1922006646210599
 31
0.0
  0
LINE
  5
11D
100
AcDbEntity
100
AcDbLine
  8
Group#1
 62
256
370
-1
  6
ByLayer
 10
-0.214741007441767
 20
-1.1922006646210599
 30
0.0
 11
-0.196088237899168
 21
-1.20025464911045
 31
0.0
  0
LINE
  5
11E
100
AcDbEntity
100
AcDbLine
  8
Group#1
 62
256
370
-1
  6
ByLayer
 10
-0.196088237899168
 20
-1.20025464911045
 30
0.0
 11
-0.183961457869036
 21
-1.2165559890512501
 31
0.0
  0
LINE
  5
11F
100
AcDbEntity
100
AcDbLine
  8
Group#1
 62
256
370
-1
  6
ByLayer
 10
-0.183961457869036
 20
-1.2165559890512501
 30
0.0
 11
-0.181610028267236
 21
-1.2367367535707701
 31
0.0
  0
LINE
  5
120
100
AcDbEntity
100
AcDbLine
  8
Group#1
 62
256
370
-1
  6
ByLayer
 10
-0.181610028267236
 20
-1.2367367535707701
 30
0.0
 11
-0.205465343591253
 21
-1.40507632236171
 31
0.0
  0
LINE
  5
121
100
AcDbEntity
100
AcDbLine
  8
Group#1
 62
256
370
-1
  6
ByLayer
 10
-0.205465343591253
 20
-1.40507632236171
 30
0.0
 11
-0.204070336808223
 21
-1.4365852631928
 31
0.0
  0
LINE
  5
122
100
AcDbEntity
100
AcDbLine
  8
Group#1
 62
256
370
-1
  6
ByLayer
 10
-0.204070336808223
 20
-1.4365852631928
 30
0.0
 11
-0.195503631968199
 21
-1.4884480688030699
 31
0.0
  0
LINE
  5
123
100
AcDbEntity
100
AcDbLine
  8
Group#1
 62
256
370
-1
  6
ByLayer
 10
-0.195503631968199
 20
-1.4884480688030699
 30
0.0
 11
-0.174833231805921
 21
-1.5590769797161099
 31
0.0
  0
LINE
  5
124
100
AcDbEntity
100
AcDbLine
  8
Group#1
 62
256
370
-1
  6
ByLayer
 10
-0.174833231805921
 20
-1.5590769797161099
 30
0.0
 11
-0.137444566880124
 21
-1.64599392580503
 31
0.0
  0
LINE
  5
125
100
AcDbEntity
100
AcDbLine
  8
Group#1
 62
256
370
-1
  6
ByLayer
 10
-0.137444566880124
 20
-1.64599392580503
 30
0.0
 11
-0.079182674554732
 21
-1.7458887143999799
 31
0.0
  0
LINE
  5
126
100
AcDbEntity
100
AcDbLine
  8
Group#1
 62
256
370
-1
  6
ByLayer
 10
-0.079182674554732
 20
-1.7458887143999799
 30
0.0
 11
-0.0775868504622461
 21
-1.7482792341715201
 31
0.0
  0
LINE
  5
127
100
AcDbEntity
100
AcDbLine
  8
Group#1
 62
256
370
-1
  6
ByLayer
 10
-0.0775868504622461
 20
-1.7482792341715201
 30
0.0
 11
0.0775868504622455
 21
-1.7482792341715201
 31
0.0
  0
LINE
  5
128
100
AcDbEntity
100
AcDbLine
  8
Group#1
 62
256
370
-1
  6
ByLayer
 10
0.0775868504622455
 20
-1.7482792341715201
 30
0.0
 11
0.0791826745547319
 21
-1.7458887143999799
 31
0.0
  0
LINE
  5
129
100
AcDbEntity
100
AcDbLine
  8
Group#1
 62
256
370
-1
  6
ByLayer
 10
0.0791826745547319
 20
-1.7458887143999799
 30
0.0
 11
0.137444566880124
 21
-1.64599392580503
 31
0.0
  0
LINE
  5
12A
100
AcDbEntity
100
AcDbLine
  8
Group#1
 62
256
370
-1
  6
ByLayer
 10
0.137444566880124
 20
-1.64599392580503
 30
0.0
 11
0.174833231805921
 21
-1.5590769797161099
 31
0.0
  0
LINE
  5
12B
100
AcDbEntity
100
AcDbLine
  8
Group#1
 62
256
370
-1
  6
ByLayer
 10
0.174833231805921
 20
-1.5590769797161099
 30
0.0
 11
0.195503631968199
 21
-1.4884480688030699
 31
0.0
  0
LINE
  5
12C
100
AcDbEntity
100
AcDbLine
  8
Group#1
 62
256
370
-1
  6
ByLayer
 10
0.195503631968199
 20
-1.4884480688030699
 30
0.0
 11
0.204070336808223
 21
-1.4365852631928
 31
0.0
  0
LINE
  5
12D
100
AcDbEntity
100
AcDbLine
  8
Group#1
 62
256
370
-1
  6
ByLayer
 10
0.204070336808223
 20
-1.4365852631928
 30
0.0
 11
0.205465343591253
 21
-1.40507632236171
 31
0.0
  0
LINE
  5
12E
100
AcDbEntity
100
AcDbLine
  8
Group#1
 62
256
370
-1
  6
ByLayer
 10
0.205465343591253
 20
-1.40507632236171
 30
0.0
 11
0.181610028267236
 21
-1.2367367535707701
 31
0.0
  0
LINE
  5
12F
100
AcDbEntity
100
AcDbLine
  8
Group#1
 62
256
370
-1
  6
ByLayer
 10
0.181610028267236
 20
-1.2367367535707701
 30
0.0
 11
0.183961457869036
 21
-1.2165559890512501
 31
0.0
  0
LINE
  5
130
100
AcDbEntity
100
AcDbLine
  8
Group#1
 62
256
370
-1
  6
ByLayer
 10
0.183961457869036
 20
-1.2165559890512501
 30
0.0
 11
0.196088237899168
 21
-1.20025464911045
 31
0.0
  0
LINE
  5
131
100
AcDbEntity
100
AcDbLine
  8
Group#1
 62
256
370
-1
  6
ByLayer
 10
0.196088237899168
 20
-1.20025464911045
 30
0.0
 11
0.214741007441767
 21
-1.1922006646210599
 31
0.0
  0
LINE
  5
132
100
AcDbEntity
100
AcDbLine
  8
Group#1
 62
256
370
-1
  6
ByLayer
 10
0.214741007441767
 20
-1.1922006646210599
 30
0.0
 11
0.410129164631697
 21
-1.1398465656914101
 31
0.0
  0
LINE
  5
133
100
AcDbEntity
100
AcDbLine
  8
Group#1
 62
256
370
-1
  6
ByLayer
 10
0.410129164631697
 20
-1.1398465656914101
 30
0.0
 11
0.43030992915122
 21
-1.1374951360896099
 31
0.0
  0
LINE
  5
134
100
AcDbEntity
100
AcDbLine
  8
Group#1
 62
256
370
-1
  6
ByLayer
 10
0.43030992915122
 20
-1.1374951360896099
 30
0.0
 11
0.448962698693819
 21
-1.145549120579
 31
0.0
  0
LINE
  5
135
100
AcDbEntity
100
AcDbLine
  8
Group#1
 62
256
370
-1
  6
ByLayer
 10
0.448962698693819
 20
-1.145549120579
 30
0.0
 11
0.46108947872395
 21
-1.1618504605197999
 31
0.0
  0
LINE
  5
136
100
AcDbEntity
100
AcDbLine
  8
Group#1
 62
256
370
-1
  6
ByLayer
 10
0.46108947872395
 20
-1.1618504605197999
 30
0.0
 11
0.524599954033531
 21
-1.31956446121688
 31
0.0
  0
LINE
  5
137
100
AcDbEntity
100
AcDbLine
  8
Group#1
 62
256
370
-1
  6
ByLayer
 10
0.524599954033531
 20
-1.31956446121688
 30
0.0
 11
0.541562535761631
 21
-1.34615450103143
 31
0.0
  0
LINE
  5
138
100
AcDbEntity
100
AcDbLine
  8
Group#1
 62
256
370
-1
  6
ByLayer
 10
0.541562535761631
 20
-1.34615450103143
 30
0.0
 11
0.574912922584952
 21
-1.38678565578145
 31
0.0
  0
LINE
  5
139
100
AcDbEntity
100
AcDbLine
  8
Group#1
 62
256
370
-1
  6
ByLayer
 10
0.574912922584952
 20
-1.38678565578145
 30
0.0
 11
0.628128469688393
 21
-1.43761688679263
 31
0.0
  0
LINE
  5
13A
100
AcDbEntity
100
AcDbLine
  8
Group#1
 62
256
370
-1
  6
ByLayer
 10
0.628128469688393
 20
-1.43761688679263
 30
0.0
 11
0.703966476372176
 21
-1.4941948376620899
 31
0.0
  0
LINE
  5
13B
100
AcDbEntity
100
AcDbLine
  8
Group#1
 62
256
370
-1
  6
ByLayer
 10
0.703966476372176
 20
-1.4941948376620899
 30
0.0
 11
0.8043701494959959
 21
-1.5515753161282999
 31
0.0
  0
LINE
  5
13C
100
AcDbEntity
100
AcDbLine
  8
Group#1
 62
256
370
-1
  6
ByLayer
 10
0.8043701494959959
 20
-1.5515753161282999
 30
0.0
 11
0.80694743358583
 21
-1.5528476549324599
 31
0.0
  0
LINE
  5
13D
100
AcDbEntity
100
AcDbLine
  8
Group#1
 62
256
370
-1
  6
ByLayer
 10
0.80694743358583
 20
-1.5528476549324599
 30
0.0
 11
0.941331800585688
 21
-1.47526080447021
 31
0.0
  0
LINE
  5
13E
100
AcDbEntity
100
AcDbLine
  8
Group#1
 62
256
370
-1
  6
ByLayer
 10
0.941331800585688
 20
-1.47526080447021
 30
0.0
 11
0.941518564903981
 21
-1.47239264157357
 31
0.0
  0
LINE
  5
13F
100
AcDbEntity
100
AcDbLine
  8
Group#1
 62
256
370
-1
  6
ByLayer
 10
0.941518564903981
 20
-1.47239264157357
 30
0.0
 11
0.942027449432849
 21
-1.3567502707819701
 31
0.0
  0
LINE
  5
140
100
AcDbEntity
100
AcDbLine
  8
Group#1
 62
256
370
-1
  6
ByLayer
 10
0.942027449432849
 20
-1.3567502707819701
 30
0.0
 11
0.9309485100277139
 21
-1.26278365498671
 31
0.0
  0
LINE
  5
141
100
AcDbEntity
100
AcDbLine
  8
Group#1
 62
256
370
-1
  6
ByLayer
 10
0.9309485100277139
 20
-1.26278365498671
 30
0.0
 11
0.913535146218119
 21
-1.19128202381325
 31
0.0
  0
LINE
  5
142
100
AcDbEntity
100
AcDbLine
  8
Group#1
 62
256
370
-1
  6
ByLayer
 10
0.913535146218119
 20
-1.19128202381325
 30
0.0
 11
0.895022727431166
 21
-1.1420841642232
 31
0.0
  0
LINE
  5
143
100
AcDbEntity
100
AcDbLine
  8
Group#1
 62
256
370
-1
  6
ByLayer
 10
0.895022727431166
 20
-1.1420841642232
 30
0.0
 11
0.880476368328176
 21
-1.1140991176256301
 31
0.0
  0
LINE
  5
144
100
AcDbEntity
100
AcDbLine
  8
Group#1
 62
256
370
-1
  6
ByLayer
 10
0.880476368328176
 20
-1.1140991176256301
 30
0.0
 11
0.7756472748468221
 21
-0.980240432252567
 31
0.0
  0
LINE
  5
145
100
AcDbEntity
100
AcDbLine
  8
Group#1
 62
256
370
-1
  6
ByLayer
 10
0.7756472748468221
 20
-0.980240432252567
 30
0.0
 11
0.76759329035743
 21
-0.961587662709968
 31
0.0
  0
LINE
  5
146
100
AcDbEntity
100
AcDbLine
  8
Group#1
 62
256
370
-1
  6
ByLayer
 10
0.76759329035743
 20
-0.961587662709968
 30
0.0
 11
0.769944719959231
 21
-0.941406898190445
 31
0.0
  0
LINE
  5
147
100
AcDbEntity
100
AcDbLine
  8
Group#1
 62
256
370
-1
  6
ByLayer
 10
0.769944719959231
 20
-0.941406898190445
 30
0.0
 11
0.782071499989362
 21
-0.925105558249646
 31
0.0
  0
LINE
  5
148
100
AcDbEntity
100
AcDbLine
  8
Group#1
 62
256
370
-1
  6
ByLayer
 10
0.782071499989362
 20
-0.925105558249646
 30
0.0
 11
0.925105558249645
 21
-0.782071499989363
 31
0.0
  0
LINE
  5
149
100
AcDbEntity
100
AcDbLine
  8
Group#1
 62
256
370
-1
  6
ByLayer
 10
0.925105558249645
 20
-0.782071499989363
 30
0.0
 11
0.941406898190444
 21
-0.769944719959232
 31
0.0
  0
LINE
  5
14A
100
AcDbEntity
100
AcDbLine
  8
Group#1
 62
256
370
-1
  6
ByLayer
 10
0.941406898190444
 20
-0.769944719959232
 30
0.0
 11
0.961587662709967
 21
-0.767593290357431
 31
0.0
  0
LINE
  5
14B
100
AcDbEntity
100
AcDbLine
  8
Group#1
 62
256
370
-1
  6
ByLayer
 10
0.961587662709967
 20
-0.767593290357431
 30
0.0
 11
0.980240432252566
 21
-0.7756472748468231
 31
0.0
  0
LINE
  5
14C
100
AcDbEntity
100
AcDbLine
  8
Group#1
 62
256
370
-1
  6
ByLayer
 10
0.980240432252566
 20
-0.7756472748468231
 30
0.0
 11
1.1140991176256201
 21
-0.880476368328177
 31
0.0
  0
LINE
  5
14D
100
AcDbEntity
100
AcDbLine
  8
Group#1
 62
256
370
-1
  6
ByLayer
 10
1.1140991176256201
 20
-0.880476368328177
 30
0.0
 11
1.1420841642232
 21
-0.895022727431167
 31
0.0
  0
LINE
  5
14E
100
AcDbEntity
100
AcDbLine
  8
Group#1
 62
256
370
-1
  6
ByLayer
 10
1.1420841642232
 20
-0.895022727431167
 30
0.0
 11
1.19128202381325
 21
-0.91353514621812
 31
0.0
  0
LINE
  5
14F
100
AcDbEntity
100
AcDbLine
  8
Group#1
 62
256
370
-1
  6
ByLayer
 10
1.19128202381325
 20
-0.91353514621812
 30
0.0
 11
1.2627836549867
 21
-0.9309485100277159
 31
0.0
  0
LINE
  5
150
100
AcDbEntity
100
AcDbLine
  8
Group#1
 62
256
370
-1
  6
ByLayer
 10
1.2627836549867
 20
-0.9309485100277159
 30
0.0
 11
1.3567502707819701
 21
-0.94202744943285
 31
0.0
  0
LINE
  5
151
100
AcDbEntity
100
AcDbLine
  8
Group#1
 62
256
370
-1
  6
ByLayer
 10
1.3567502707819701
 20
-0.94202744943285
 30
0.0
 11
1.47239264157357
 21
-0.941518564903983
 31
0.0
  0
LINE
  5
152
100
AcDbEntity
100
AcDbLine
  8
Group#1
 62
256
370
-1
  6
ByLayer
 10
1.47239264157357
 20
-0.941518564903983
 30
0.0
 11
1.47526080447021
 21
-0.941331800585689
 31
0.0
  0
LINE
  5
153
100
AcDbEntity
100
AcDbLine
  8
Group#1
 62
256
370
-1
  6
ByLayer
 10
1.47526080447021
 20
-0.941331800585689
 30
0.0
 11
1.5528476549324599
 21
-0.80694743358583
 31
0.0
  0
INSERT
  5
154
100
AcDbEntity
100
AcDbBlockReference
  8
Group#1
 62
256
370
-1
  6
ByLayer
  2
hitech_holes-0
 10
-0.0000000000000001
 20
0.0000000000000001
 30
0.0
  0
ENDSEC
  0
SECTION
  2
OBJECTS
  0
DICTIONARY
  5
C
100
AcDbDictionary
280
0
281
1
  3
ACAD_GROUP
350
D
  3
ACAD_LAYOUT
350
1A
  3
ACAD_MLINESTYLE
350
17
  3
ACAD_PLOTSETTINGS
350
19
  3
ACAD_PLOTSTYLENAME
350
E
  3
AcDbVariableDictionary
350
155
  0
DICTIONARY
  5
D
100
AcDbDictionary
280
0
281
1
  0
ACDBDICTIONARYWDFLT
  5
E
100
AcDbDictionary
281
1
  3
Normal
350
F
100
AcDbDictionaryWithDefault
340
F
  0
ACDBPLACEHOLDER
  5
F
  0
DICTIONARY
  5
17
100
AcDbDictionary
280
0
281
1
  3
Standard
350
18
  0
MLINESTYLE
  5
18
100
AcDbMlineStyle
  2
STANDARD
 70
0
  3

 62
256
 51
90.0
 52
90.0
 71
2
 49
0.5
 62
256
  6
BYLAYER
 49
-0.5
 62
256
  6
BYLAYER
  0
DICTIONARY
  5
19
100
AcDbDictionary
280
0
281
1
  0
DICTIONARY
  5
1A
100
AcDbDictionary
281
1
  3
Layout1
350
1E
  3
Layout2
350
26
  3
Model
350
22
  0
LAYOUT
  5
1E
100
AcDbPlotSettings
  1

  2
C:\Program Files\AutoCAD 2002\plotters\DWF ePlot (optimized for plotting).pc3
  4

  6

 40
0.0
 41
0.0
 42
0.0
 43
0.0
 44
0.0
 45
0.0
 46
0.0
 47
0.0
 48
0.0
 49
0.0
140
0.0
141
0.0
142
1.0
143
1.0
 70
688
 72
0
 73
0
 74
5
  7

 75
16
147
1.0
148
0.0
149
0.0
100
AcDbLayout
  1
Layout1
 70
1
 71
1
 10
0.0
 20
0.0
 11
420.0
 21
297.0
 12
0.0
 22
0.0
 32
0.0
 14
100000000000000000000.0
 24
100000000000000000000.0
 34
100000000000000000000.0
 15
-100000000000000000000.0
 25
-100000000000000000000.0
 35
-100000000000000000000.0
146
0.0
 13
0.0
 23
0.0
 33
0.0
 16
1.0
 26
0.0
 36
0.0
 17
0.0
 27
1.0
 37
0.0
 76
0
330
1B
  0
LAYOUT
  5
22
100
AcDbPlotSettings
  1

  2
C:\Program Files\AutoCAD 2002\plotters\DWF ePlot (optimized for plotting).pc3
  4

  6

 40
0.0
 41
0.0
 42
0.0
 43
0.0
 44
0.0
 45
0.0
 46
0.0
 47
0.0
 48
0.0
 49
0.0
140
0.0
141
0.0
142
1.0
143
1.0
 70
1712
 72
0
 73
0
 74
0
  7

 75
0
147
1.0
148
0.0
149
0.0
100
AcDbLayout
  1
Model
 70
1
 71
0
 10
0.0
 20
0.0
 11
12.0
 21
9.0
 12
0.0
 22
0.0
 32
0.0
 14
0.0
 24
0.0
 34
0.0
 15
0.0
 25
0.0
 35
0.0
146
0.0
 13
0.0
 23
0.0
 33
0.0
 16
1.0
 26
0.0
 36
0.0
 17
0.0
 27
1.0
 37
0.0
 76
0
330
1F
  0
LAYOUT
  5
26
100
AcDbPlotSettings
  1

  2
C:\Program Files\AutoCAD 2002\plotters\DWF ePlot (optimized for plotting).pc3
  4

  6

 40
0.0
 41
0.0
 42
0.0
 43
0.0
 44
0.0
 45
0.0
 46
0.0
 47
0.0
 48
0.0
 49
0.0
140
0.0
141
0.0
142
1.0
143
1.0
 70
688
 72
0
 73
0
 74
5
  7

 75
16
147
1.0
148
0.0
149
0.0
100
AcDbLayout
  1
Layout2
 70
1
 71
2
 10
0.0
 20
0.0
 11
12.0
 21
9.0
 12
0.0
 22
0.0
 32
0.0
 14
0.0
 24
0.0
 34
0.0
 15
0.0
 25
0.0
 35
0.0
146
0.0
 13
0.0
 23
0.0
 33
0.0
 16
1.0
 26
0.0
 36
0.0
 17
0.0
 27
1.0
 37
0.0
 76
0
330
23
  0
DICTIONARY
  5
155
100
AcDbDictionary
281
1
  3
DIMASSOC
350
157
  3
HIDETEXT
350
156
  0
DICTIONARYVAR
  5
156
100
DictionaryVariables
280
0
  1
2
  0
DICTIONARYVAR
  5
157
100
DictionaryVariables
280
0
  1
1
  0
ENDSEC
  0
EOF
